<?xml version="1.0" encoding="utf-8"?>
<!-- Generator: Adobe Illustrator 26.1.0, SVG Export Plug-In . SVG Version: 6.00 Build 0)  -->
<svg version="1.1" id="Слой_1" xmlns="http://www.w3.org/2000/svg" xmlns:xlink="http://www.w3.org/1999/xlink" x="0px" y="0px"
	 viewBox="0 0 1080 1080" style="enable-background:new 0 0 1080 1080;" xml:space="preserve">
<style type="text/css">
	.st0{fill:#31A41C;stroke:#000000;stroke-width:32;stroke-linecap:round;stroke-linejoin:round;stroke-miterlimit:10;}
</style>
<path class="st0" d="M506.93,493.15c-55.8-75.95-111.61-151.89-167.41-227.84c-26.52,6.29-70.24,20.34-114.5,53.85
	c-57.41,43.46-84.77,96.23-96.31,122.68c69.76,91.84,139.51,183.69,209.27,275.53"/>
<path class="st0" d="M494.01,476.12c80.91-106.59,161.82-213.18,242.72-319.77c15.98-1.21,77.64-4.01,135.81,38.83
	c61.81,45.53,76,110.4,78.85,125.2c-54.27,71.44-162.8,214.35-162.8,214.35s-87.94,115.79-131.91,173.68
	c-54.38,71.6-108.76,143.19-163.13,214.79c-56.67-74.93-113.34-149.85-170.01-224.78"/>
</svg>
